HIERARCHY
ROOT hip
{
	OFFSET 0.000000 0.000000 0.000000 
	CHANNELS 6 Xposition Yposition Zposition Xrotation Zrotation Yrotation
	JOINT abdomen
	{
		OFFSET 0.000000 3.402643 0.000000 
		CHANNELS 3 Xrotation Zrotation Yrotation
		JOINT chest
		{
			OFFSET 0.000000 8.438565 -0.680529 
			CHANNELS 3 Xrotation Zrotation Yrotation
			JOINT neck
			{
				OFFSET 0.000000 10.207942 -0.272212 
				CHANNELS 3 Xrotation Zrotation Yrotation
				JOINT head
				{
					OFFSET 0.000000 3.130431 0.000000 
					CHANNELS 3 Xrotation Zrotation Yrotation
					End Site
					{
						OFFSET 0.000000 3.130435 0.000000 
					}
				}
			}
			JOINT lCollar
			{
				OFFSET 3.470700 6.669187 -0.816635 
				CHANNELS 3 Yrotation Zrotation Xrotation
				JOINT lShldr
				{
					OFFSET 3.198488 0.000000 0.000000 
					CHANNELS 3 Zrotation Yrotation Xrotation
					JOINT lForeArm
					{
						OFFSET 10.139888 0.000000 0.000000 
						CHANNELS 3 Yrotation Zrotation Xrotation
						JOINT lHand
						{
							OFFSET 8.370511 0.000000 0.000000 
							CHANNELS 3 Zrotation Yrotation Xrotation
							End Site
							{
								OFFSET 4.083176 0.000000 0.000000 
							}
						}
					}
				}
			}
			JOINT rCollar
			{
				OFFSET -3.470700 6.669187 -0.816635 
				CHANNELS 3 Yrotation Zrotation Xrotation
				JOINT rShldr
				{
					OFFSET -3.198488 0.000000 0.000000 
					CHANNELS 3 Zrotation Yrotation Xrotation
					JOINT rForeArm
					{
						OFFSET -10.139888 0.000000 0.000000 
						CHANNELS 3 Yrotation Zrotation Xrotation
						JOINT rHand
						{
							OFFSET -8.370511 0.000000 0.000000 
							CHANNELS 3 Zrotation Yrotation Xrotation
							End Site
							{
								OFFSET -4.083176 0.000000 0.000000 
							}
						}
					}
				}
			}
		}
	}
	JOINT lThigh
	{
		OFFSET 5.308129 -1.633274 1.361059 
		CHANNELS 3 Xrotation Zrotation Yrotation
		JOINT lShin
		{
			OFFSET -2.041588 -20.007561 0.000000 
			CHANNELS 3 Xrotation Zrotation Yrotation
			JOINT lFoot
			{
				OFFSET 0.000000 -19.190928 -1.224953 
				CHANNELS 3 Xrotation Yrotation Zrotation
				End Site
				{
					OFFSET 0.000000 -2.449906 4.627600 
				}
			}
		}
	}
	JOINT rThigh
	{
		OFFSET -5.308129 -1.633274 1.361059 
		CHANNELS 3 Xrotation Zrotation Yrotation
		JOINT rShin
		{
			OFFSET 2.041588 -20.007561 0.000000 
			CHANNELS 3 Xrotation Zrotation Yrotation
			JOINT rFoot
			{
				OFFSET 0.000000 -19.190928 -1.224953 
				CHANNELS 3 Xrotation Yrotation Zrotation
				End Site
				{
					OFFSET 0.000000 -2.449906 4.627600 
				}
			}
		}
	}
}
MOTION
Frames: 16
Frame Time: 0.016667
0.729409 20.907503 -6.192316 -16.464712 -2.004427 -17.325724 56.381241 -7.675407 10.980594 -4.777411 3.357262 -2.493610 -22.424820 3.184829 -0.818549 2.322813 4.938432 -67.890739 -3.227707 -7.560753 -0.389920 -55.530270 13.604804 -16.608587 -15.174607 -5.000000 45.000000 -11.637527 -6.016284 26.996508 10.920904 5.393860 -0.287541 45.574253 9.648476 2.562170 19.343864 5.000000 30.605528 12.568188 -15.877736 31.893818 -13.360102 44.358559 21.103695 144.986130 8.966927 -4.294364 -49.887367 5.742593 -1.289051 -72.442421 3.981643 7.398551 144.972534 -9.967459 4.323622 -57.189602 -6.026309 12.713470 
0.734338 20.901455 -6.203749 -16.485794 -1.994680 -17.364418 56.396671 -7.695465 10.966539 -4.777411 3.357262 -2.493610 -22.445030 3.193017 -0.829649 2.298335 4.952236 -67.843147 -3.208108 -7.551001 -0.389417 -55.532295 13.587973 -16.571587 -15.200187 -5.000000 45.000000 -11.555522 -5.961623 26.821606 10.901471 5.413368 -0.288552 45.634132 9.700132 2.614669 19.331091 5.000000 30.589418 12.569268 -15.888494 31.826540 -13.331684 44.346550 21.104761 144.975220 8.961300 -4.306280 -49.880001 5.683138 -1.337962 -72.490089 3.984447 7.382026 144.986053 -9.994443 4.321316 -57.134094 -5.952835 12.681276 
0.737823 20.895407 -6.215036 -16.506887 -1.984936 -17.403458 56.400845 -7.726062 10.961654 -4.786604 3.357282 -2.483861 -22.464842 3.212327 -0.832570 2.293952 4.971402 -67.807617 -3.199635 -7.550455 -0.399083 -55.541061 13.571616 -16.571461 -15.234388 -5.000000 45.000000 -11.466192 -5.887299 26.652637 10.882091 5.442629 -0.290067 45.673630 9.739096 2.649873 19.326979 5.000000 30.571243 12.595423 -15.899574 31.750612 -13.330642 44.355335 21.115351 144.993179 8.943800 -4.293493 -49.841183 5.674599 -1.374889 -72.527832 4.023321 7.350455 144.987457 -10.000000 4.343387 -57.111431 -5.957010 12.598117 
0.740345 20.889362 -6.226227 -16.525064 -1.984511 -17.442493 56.395397 -7.754723 10.958950 -4.795453 3.347543 -2.474112 -22.484653 3.231636 -0.835490 2.300735 4.997990 -67.772942 -3.209263 -7.530951 -0.398077 -55.550682 13.568831 -16.573753 -15.257948 -5.000000 45.000000 -11.373996 -5.801941 26.490980 10.862759 5.481642 -0.292088 45.716492 9.764030 2.700016 19.322857 5.000000 30.555405 12.635300 -15.907888 31.672543 -13.301697 44.351883 21.135489 144.983017 8.933850 -4.272069 -49.831795 5.665920 -1.396845 -72.554276 4.041847 7.304967 144.985504 -10.000000 4.378649 -57.089718 -5.922168 12.507895 
0.742649 20.883556 -6.237153 -16.533138 -1.983980 -17.491629 56.409050 -7.783545 10.949903 -4.794311 3.347583 -2.454044 -22.494699 3.250945 -0.838410 2.288013 5.024632 -67.738297 -3.218960 -7.521195 -0.397574 -55.562008 13.571562 -16.583931 -15.292177 -5.000000 45.000000 -11.299918 -5.707480 26.332384 10.852266 5.522491 -0.284562 45.767612 9.795430 2.743594 19.325125 5.000000 30.546457 12.691614 -15.911248 31.583178 -13.281264 44.365177 21.161995 144.993378 8.934023 -4.258725 -49.764748 5.624585 -1.443621 -72.571365 4.070641 7.264002 144.975861 -10.000000 4.393588 -57.085609 -5.870454 12.437394 
0.744087 20.878721 -6.247018 -16.568243 -1.992972 -17.520906 56.422714 -7.812361 10.942178 -4.794078 3.357362 -2.444293 -22.495535 3.268788 -0.850970 2.262773 5.036510 -67.701103 -3.228588 -7.501689 -0.396568 -55.581257 13.565989 -16.588512 -15.335021 -5.000000 45.000000 -11.258057 -5.606535 26.186588 10.852316 5.532244 -0.285067 45.837227 9.798884 2.762288 19.324707 5.000000 30.582531 12.753478 -15.918188 31.524523 -13.251993 44.374733 21.152245 144.991623 8.914062 -4.252186 -49.745956 5.603479 -1.466577 -72.583046 4.100326 7.158241 144.974854 -10.000000 4.401124 -57.039246 -5.853447 12.286524 
0.745527 20.873884 -6.256886 -16.605946 -1.992543 -17.559944 56.442360 -7.857359 10.924745 -4.784077 3.367142 -2.434543 -22.495825 3.288097 -0.853890 2.228475 5.052109 -67.663910 -3.247982 -7.482181 -0.395562 -55.609325 13.565680 -16.589926 -15.367193 -5.000000 45.000000 -11.216745 -5.505432 26.041723 10.852415 5.551749 -0.286077 45.897285 9.809505 2.786407 19.326548 5.000000 30.607307 12.812648 -15.927198 31.472364 -13.203993 44.379284 21.149160 144.990005 8.903934 -4.272929 -49.696892 5.601892 -1.471676 -72.586174 4.160288 7.063133 144.975128 -10.000000 4.388462 -56.981434 -5.859307 12.150162 
0.745906 20.868080 -6.267621 -16.615944 -2.020257 -17.579803 56.459938 -7.873492 10.934505 -4.783838 3.376921 -2.424793 -22.535320 3.317061 -0.858270 2.232408 5.065679 -67.637100 -3.246435 -7.443725 -0.383883 -55.633961 13.532727 -16.576283 -15.414351 -5.000000 45.000000 -11.197834 -5.407835 25.949005 10.852512 5.571254 -0.287087 45.984703 9.812245 2.794798 19.304689 5.000000 30.631664 12.889108 -15.906869 31.442335 -13.193604 44.412544 21.151495 144.991272 8.904314 -4.234661 -49.737820 5.561309 -1.509385 -72.610794 4.168017 6.995909 144.983749 -10.000000 4.432474 -56.872051 -5.738439 12.055965 
0.746022 20.862034 -6.278570 -16.636040 -2.048074 -17.589912 56.488777 -7.879066 10.936386 -4.783838 3.376921 -2.434558 -22.575384 3.344558 -0.872288 2.246116 5.079266 -67.609428 -3.246236 -7.414467 -0.382373 -55.665730 13.499563 -16.553827 -15.465813 -5.000000 45.000000 -11.185266 -5.315122 25.877550 10.852562 5.581007 -0.287592 46.072121 9.814982 2.803203 19.282831 5.000000 30.653673 12.956867 -15.881385 31.412361 -13.174827 44.428104 21.157267 144.990265 8.894313 -4.235876 -49.815674 5.576992 -1.476041 -72.624321 4.208514 6.911845 144.974991 -10.000000 4.420476 -56.768745 -5.606437 12.011857 
0.745704 20.856955 -6.288990 -16.662579 -2.085085 -17.609785 56.524483 -7.896334 10.933171 -4.783018 3.386720 -2.415060 -22.595211 3.363868 -0.875207 2.248662 5.085421 -67.580902 -3.247235 -7.374905 -0.390030 -55.699196 13.471932 -16.536959 -15.510847 -5.000000 45.000000 -11.187372 -5.244729 25.830023 10.853499 5.579168 -0.297137 46.170773 9.803503 2.812740 19.269636 5.000000 30.673632 13.034226 -15.876080 31.385685 -13.165310 44.454391 21.129400 144.989227 8.884303 -4.238623 -49.825665 5.571993 -1.467620 -72.615761 4.238479 6.799699 144.973663 -10.000000 4.433339 -56.641125 -5.525341 11.897571 
0.744737 20.853331 -6.298613 -16.722235 -2.140702 -17.630024 56.601635 -7.898570 10.926692 -4.782849 3.416040 -2.385794 -22.595062 3.354213 -0.873747 2.220652 5.082434 -67.540260 -3.266496 -7.335891 -0.388017 -55.742290 13.441550 -16.524605 -15.577322 -5.000000 45.000000 -11.232380 -5.221550 25.844019 10.872930 5.559660 -0.296127 46.260189 9.765403 2.807441 19.273737 5.000000 30.691814 13.116792 -15.910559 31.386435 -13.106706 44.504147 21.108654 144.989227 8.884305 -4.238620 -49.826866 5.541704 -1.498540 -72.569344 4.284859 6.699600 144.972748 -10.000000 4.464691 -56.464535 -5.458660 11.782174 
0.743771 20.849705 -6.308238 -16.772461 -2.196424 -17.640526 56.660545 -7.896165 10.924059 -4.771983 3.435619 -2.356547 -22.594769 3.334904 -0.870828 2.202397 5.079408 -67.499619 -3.284576 -7.307191 -0.376837 -55.776638 13.427535 -16.510153 -15.641639 -5.000000 45.000000 -11.277376 -5.198354 25.857105 10.891477 5.551749 -0.286077 46.358162 9.740604 2.802616 19.284206 5.000000 30.716877 13.196115 -15.935532 31.371548 -13.057796 44.560894 21.093557 144.990265 8.894329 -4.235833 -49.809921 5.467779 -1.537913 -72.550743 4.324126 6.582998 144.982300 -10.000000 4.477304 -56.268620 -5.406240 11.662243 
0.744129 20.847288 -6.316783 -16.804396 -2.280182 -17.641676 56.728725 -7.868749 10.963704 -4.781748 3.435619 -2.356547 -22.614447 3.344558 -0.872288 2.182712 5.068854 -67.457253 -3.284317 -7.268180 -0.374824 -55.805050 13.361891 -16.472424 -15.701662 -5.000000 45.000000 -11.334316 -5.184863 25.912819 10.911839 5.530395 -0.294611 46.453823 9.709620 2.775261 19.286016 5.000000 30.744003 13.258101 -15.950329 31.362030 -13.057266 44.635548 21.061075 144.989548 8.884388 -4.229562 -49.857182 5.518503 -1.521000 -72.522034 4.373429 6.461606 144.973175 -10.000000 4.475070 -56.039173 -5.339329 11.598135 
0.744487 20.844870 -6.325326 -16.829529 -2.354633 -17.642475 56.796940 -7.841363 11.003358 -4.781748 3.435619 -2.356547 -22.634125 3.354213 -0.873747 2.172058 5.054484 -67.414017 -3.274293 -7.229171 -0.372811 -55.835152 13.301773 -16.442549 -15.768173 -5.000000 45.000000 -11.391235 -5.171272 25.968527 10.921554 5.520642 -0.294106 46.539932 9.685863 2.754967 19.296459 5.000000 30.769056 13.316391 -15.952188 31.355810 -13.047647 44.702847 21.031515 144.989548 8.884399 -4.229520 -49.916489 5.509314 -1.539273 -72.514305 4.422653 6.356022 144.982147 -10.000000 4.505631 -55.760319 -5.249595 11.546578 
0.743977 20.843176 -6.335243 -16.851280 -2.438257 -17.653463 56.846428 -7.800413 11.040065 -4.772631 3.455139 -2.346779 -22.633829 3.334904 -0.870828 2.134229 5.051307 -67.373367 -3.274164 -7.209667 -0.371804 -55.825104 13.247253 -16.395746 -15.824122 -5.000000 45.000000 -11.408068 -5.146304 26.007044 10.940933 5.491382 -0.292590 46.617157 9.642290 2.725158 19.294176 5.000000 30.778000 13.325583 -15.969105 31.380533 -13.027689 44.782726 21.005232 144.989548 8.884407 -4.229505 -49.945076 5.533032 -1.525756 -72.485954 4.461792 6.241210 144.971298 -10.000000 4.509521 -55.497658 -5.170359 11.535702 
0.742890 20.841970 -6.346073 -16.875967 -2.512566 -17.664068 56.914345 -7.762245 11.075090 -4.763780 3.464880 -2.336995 -22.622921 3.297752 -0.855350 2.076734 5.049838 -67.343094 -3.283930 -7.209667 -0.371804 -55.807014 13.179321 -16.357603 -15.873807 -5.000000 45.000000 -11.407251 -5.129890 26.043804 10.970079 5.462119 -0.291075 46.693077 9.612545 2.695902 19.300533 5.000000 30.784882 13.293344 -15.990948 31.427675 -13.017908 44.871422 20.965014 144.989243 8.884354 -4.238480 -49.975414 5.507625 -1.524619 -72.478554 4.501578 6.141848 144.981857 -10.000000 4.514573 -55.187439 -5.067315 11.510467 
